<svg xmlns="http://www.w3.org/2000/svg" width="24" height="24" viewBox="0 0 170.191 150.518">
  <g id="White_text" data-name="White text" transform="translate(-970.611 313.157)">
    <path id="Path_784" data-name="Path 784" d="M81.877,24.065c-16.9-.57-21.543-22.8-21.543-22.8s-8.834-2.85-14.25,0S3.618,30.053,3.618,30.053s-6.841,1.71-1.71,10.259S17.014,62.541,17.014,62.541s4.845,4.847,11.97,0,9.12-7.694,9.12-7.694v81.8s-2.565,5.129,4.845,5.416,80.942,0,80.942,0,4.275,1.422,4.275-5.416v-81.8l9.975,7.694s5.415,2.282,8.55-1.993S162.65,38.6,162.65,38.6s1.424-5.7-1.711-8.55S128.237,6.109,123.89,2.976s-10.6-2.328-15.675-1.709S98.78,24.635,81.877,24.065Z" transform="matrix(0.999, -0.052, 0.052, 0.999, 970.611, -304.628)" fill="#4495ec"/>
    <text id="RCK" transform="translate(1023.805 -210.24) rotate(-3)" fill="#fff" font-size="35" font-family="SegoeUI-Bold, Segoe UI" font-weight="700"><tspan x="0" y="0">RCK</tspan></text>
  </g>
</svg>
