<svg xmlns="http://www.w3.org/2000/svg" width="162.825" height="144.994" viewBox="0 0 162.825 144.994">
  <g id="Transparent_text" data-name="Transparent text" transform="translate(-972.419 310.004)">
    <path id="Exclusion_1" data-name="Exclusion 1" d="M-181.884,148.147c-2.413,0-4.019-.583-4.772-1.734a4.023,4.023,0,0,1-.141-3.423l-4.28-81.684v0c-.209.317-2.229,3.24-8.7,8.155a10.922,10.922,0,0,1-6.6,2.491,8.608,8.608,0,0,1-5.35-1.865c-.107-.132-10.745-13.237-16.249-21.407-1.979-2.938-2.632-5.42-1.939-7.376a5.2,5.2,0,0,1,3.111-2.959c1.457-1.138,35.749-27.9,40.9-30.968A14.086,14.086,0,0,1-178.7,5.768a31.045,31.045,0,0,1,7.018.868,42.888,42.888,0,0,0,4.937,10.821c3.2,4.937,8.819,10.821,17.409,10.821.121,0,.239,0,.361,0,11.1-.207,16.215-10.052,19.949-17.239,1.916-3.689,3.429-6.6,5.16-6.906l.177-.031a48.124,48.124,0,0,1,8.155-.947,13.339,13.339,0,0,1,7.41,1.864c.648.417,1.895,1.215,3.338,2.14,9.654,6.182,32.262,20.658,35.077,22.96a7.35,7.35,0,0,1,2.308,5.23,13.739,13.739,0,0,1-.152,3.219l-.1.149c-2.805,4.324-12.155,18.731-14.694,22.6a6.388,6.388,0,0,1-5.58,2.886,9.36,9.36,0,0,1-2.854-.447l-10.364-7.161c0,.042,3.867,73.788,4.281,81.683.119,2.278-.27,3.906-1.157,4.841a2.845,2.845,0,0,1-2.109.872,3,3,0,0,1-.72-.081c-3,.169-73.593,4.133-80.831,4.236Zm14.465-70.338c-.363,0-.744.01-1.132.031l-8.738.457,1.283,24.474,5.512-.289-.491-9.37,1.485-.077q.063,0,.126,0a2.1,2.1,0,0,1,.832.167,3.149,3.149,0,0,1,.869.571,7.056,7.056,0,0,1,.844.922c.28.359.578.775.887,1.238l4.135,6.1,6.332-.332-5-6.993c-.257-.362-.545-.736-.854-1.111a12.6,12.6,0,0,0-.97-1.053,7.656,7.656,0,0,0-1.037-.844,3.536,3.536,0,0,0-1.087-.5l0-.068a8.966,8.966,0,0,0,2.209-1.108,7.07,7.07,0,0,0,1.653-1.593,6.607,6.607,0,0,0,1.007-2.012,6.943,6.943,0,0,0,.268-2.385C-159.51,79.9-162.244,77.808-167.419,77.809Zm25.446-1.739c-.437,0-.894.012-1.358.037a12.757,12.757,0,0,0-9.22,4.145,13,13,0,0,0-3.128,9.713,12.171,12.171,0,0,0,3.688,8.654,11.48,11.48,0,0,0,8.079,2.872c.31,0,.631-.009.952-.025a16.236,16.236,0,0,0,6.929-1.664l-.264-5.035a11.528,11.528,0,0,1-5.823,1.88c-.182.01-.364.014-.54.014a6.918,6.918,0,0,1-4.946-1.84,7.935,7.935,0,0,1-2.293-5.553,8.088,8.088,0,0,1,1.809-5.981,7.462,7.462,0,0,1,5.449-2.459c.229-.012.458-.018.681-.018A10.583,10.583,0,0,1-136.964,82l-.278-5.307A16.125,16.125,0,0,0-141.974,76.07Zm14.484-.383h0l-5.512.289,1.283,24.473,5.512-.289-.628-11.981.086,0a10.254,10.254,0,0,0,.719,1.315l7.69,10.258,6.963-.365-9.938-12.314,7.922-12.12-6.571.344-6.223,10.561c-.293.622-.493,1.08-.611,1.4l-.086,0-.607-11.57ZM-171.2,88.948h0l-.356-6.809,2.491-.13c.15-.008.3-.012.44-.012a3.939,3.939,0,0,1,2.6.755,3.036,3.036,0,0,1,.971,2.265,3.439,3.439,0,0,1-.958,2.634,3.978,3.978,0,0,1-2.8,1.173l-2.389.126Z" transform="translate(1202.611 -313.157)" fill="#4495ec"/>
  </g>
</svg>
